<svg xmlns="http://www.w3.org/2000/svg" viewBox="0 0 1344.58 1987.35"><g id="Layer_2" data-name="Layer 2"><g id="Layer_1-2" data-name="Layer 1"><path d="M1344.43,1068.26a42,42,0,0,0-4.74-15.16,49.75,49.75,0,0,0-8.3-10.93c-20.59-19.92-120.21-14-120.21-14-16.91,1-35.62,2.23-55.91,3.73a722,722,0,0,0-82.93,12.11,736.79,736.79,0,0,0-199.41,72.68c-31.94,17.23-55,32.79-72.68,44.73-48.07,32.45-69.86,53.22-78.27,61.5-3.37,3.31-6.28,6.19-9,8.94V919c68.61,0,86.35,1.2,122.06-5.45,14.69-2.74,31.16-5.88,52.4-13.37a311,311,0,0,0,96.7-55.59c5.63-4.76,44.56-38.15,70.81-85.73,14.07-25.47,23.11-52.51,24.23-55.9,2.41-7.3,4.31-13.94,5.59-18.64a371.51,371.51,0,0,0,9.32-44.73c7.4-50,52.12-300.76,63.36-357.82.38-1.92,1.17-5.86,1.87-11.18,1.53-11.62,7-49.07-9.32-83.86-24.17-51.5-77.14-68-80.14-69-63-19.17-114.15,18.46-119.27,22.37l-57.77,52.18c-7.45-19.43-22.88-58.22-39.14-87.59-1.83-3.32-4-7.21-7-11.87a192.15,192.15,0,0,0-35.85-40.32C773,20.27,730.8,9.08,717.65,6A202.67,202.67,0,0,0,672,0C614.2-.72,571.58,24.65,557.37,33.94a210.5,210.5,0,0,0-70.82,78.27L447.42,199.8l-41.47-47s-5.49-6-10.71-10.73c0,0-4.05-3.66-9.32-7.46-9.34-6.72-24-13.44-35.41-16.77-45.91-13.42-87.59,3.73-87.59,3.73-42.94,17.66-61.71,52.89-67.09,63.36-3.77,7.33-14.59,29-14.91,57.78A118.86,118.86,0,0,0,182.78,265c45.78,265.57,53.5,306.26,69,387.64,9.75,51.38,16.33,62.62,22.36,76.41C311.32,814.15,376.3,858.24,389.64,867c0,0,61.1,40,130,48.42,18.62,2.26,40.13,2.93,67.51,3.76,17.54.53,29.34.56,43.8.44v311.66c-2.55-2.57-5.27-5.26-8.39-8.33-8.41-8.28-30.2-29-78.27-61.5-17.69-11.94-40.74-27.5-72.69-44.73A736.76,736.76,0,0,0,272.24,1044a722.17,722.17,0,0,0-82.94-12.11c-20.28-1.5-39-2.72-55.91-3.73,0,0-99.61-5.94-120.2,14a49.75,49.75,0,0,0-8.3,10.93,42.09,42.09,0,0,0-4.75,15.16c-.36,3.73-.32,9,3.73,22.36a187.11,187.11,0,0,0,7.46,20.5c9.91,22.47,14.87,33.7,18.63,41,34.05,66,83.87,117.41,83.87,117.41,12.88,13.29,25.1,24.36,35.44,33.09,0,0,11.65,9.82,24.19,19.09,22.56,16.67,65.47,41.59,123,67.1,37.11,14,90.35,29.4,152.82,31.68,42.61,1.55,78-3.41,93.18-5.59a422.05,422.05,0,0,0,54-11.19c15.66-4.37,23.53-6.56,33.54-11.18l.94-.43v544.22a115.45,115.45,0,0,0,.59,14.3,42.64,42.64,0,0,0,3.75,13.35c6.86,14.45,20.22,24.7,36.66,23.24,15.13-1.34,27.07-9.79,34.69-22.67a37.84,37.84,0,0,0,5.37-14.33c6.37-50.79,1-105.6,1.23-156.79.61-133.85.15-267.68-.13-401.52l1.37.63c10,4.62,17.89,6.81,33.55,11.18a421.81,421.81,0,0,0,54,11.19c15.15,2.18,50.57,7.14,93.19,5.59,62.47-2.28,115.71-17.64,152.81-31.68,57.53-25.51,100.45-50.43,123-67.1,12.55-9.27,24.2-19.08,24.2-19.09,10.34-8.73,22.56-19.8,35.44-33.09,0,0,49.82-51.39,83.87-117.41,3.76-7.3,8.72-18.53,18.63-41a192,192,0,0,0,7.46-20.5C1344.75,1077.26,1344.8,1072,1344.43,1068.26Zm-749.57,252.9c-16.18,5.41-80.08,25.49-164.22,17.33a416.66,416.66,0,0,1-143.5-41c-112-55.61-167.7-148.86-188.22-188.23a660,660,0,0,1,331.72,76.41A667.23,667.23,0,0,1,604,1318C601.79,1318.78,598.66,1319.89,594.86,1321.16ZM546.19,177.44c1.06-2.63,4.16-10.45,9.32-20.5a257.71,257.71,0,0,1,13-22.37c7.08-10.49,44.63-54.14,104.37-54,45.89.08,88.7,26,111.82,67.09l44.72,102.5L643.1,417.85,507.05,265C531.25,212.69,541.53,189,546.19,177.44ZM601.75,838c-60.08-.86-56.84-.47-61.15-.8-26.43-2.06-64.21-10.3-110-39.14-8.55-5.39-35.48-25.12-59.63-59.64a240.33,240.33,0,0,1-29.82-57.77c-6.16-17.75-9.3-33.14-14.91-63.36-5.91-31.87-9.06-55.81-9.32-57.78-8.56-64.86-50-272.24-54-309.36-.61-5.63-1.37-16.63,3.72-28a48.3,48.3,0,0,1,5.6-9.32,53.24,53.24,0,0,1,22.36-16.78c8.6-2.36,19.95-3.84,31.68,0a51.8,51.8,0,0,1,20.5,13.05c15.66,15.68,109.4,120.25,236.68,264.64-33.92,31.87-62,56-82,72.68-14.19,11.82-27,25.19-41,37.27-27.5,23.79-39.32,31.67-42.86,48.46-.69,3.27-4.16,21.54,7.45,35.41,13.1,15.63,35,13.32,37.28,13,1.74-.21,3.54-.64,3.64-.66a55,55,0,0,0,20.58-10.52c11.15-9.24,496.37-449.19,508.78-460.32,6.29-5.64,18.7-15.54,35.41-16.77a47.41,47.41,0,0,1,26.09,5.59c16.45,9.22,21.24,25.91,22.36,29.82a53,53,0,0,1,1.87,18.63c-4.56,60.34-66.19,382.16-69,397-.37,2-1.6,8.35-3.73,16.77-6.85,27.21-19,49.88-22.36,55.91a240.47,240.47,0,0,1-50.32,63.36,254.24,254.24,0,0,1-106.23,54.05c-11.94,2.66-20,3.38-78.09,4.53-36.38.73-54.57,1.08-71,1.06C658.06,839,649.9,838.66,601.75,838Zm455.68,459.52a416.6,416.6,0,0,1-143.5,41c-84.13,8.16-148-11.92-164.22-17.33-3.79-1.27-6.92-2.38-9.1-3.17a661,661,0,0,1,505.05-208.73C1225.13,1148.63,1169.47,1241.88,1057.43,1297.49Z"/></g></g></svg>